<mxfile host="app.diagrams.net" modified="2022-03-04T10:43:12.917Z" agent="5.0 (Windows NT 10.0; Win64; x64) AppleWebKit/537.36 (KHTML, like Gecko) Chrome/98.0.4758.102 Safari/537.36" etag="DinxNSlfEXC0rgA_Fw7d" version="16.5.6" type="github">
  <diagram id="WZl0Q1Te6EeCowM1adRx" name="Page-1">
    <mxGraphModel dx="1422" dy="786" grid="1" gridSize="10" guides="1" tooltips="1" connect="1" arrows="1" fold="1" page="1" pageScale="1" pageWidth="827" pageHeight="1169" math="0" shadow="0">
      <root>
        <mxCell id="0" />
        <mxCell id="1" parent="0" />
        <mxCell id="S5zX3HuSBleYr7RCD1JO-1" value="Tài khoản" style="rounded=0;whiteSpace=wrap;html=1;" vertex="1" parent="1">
          <mxGeometry x="140" y="180" width="100" height="50" as="geometry" />
        </mxCell>
        <mxCell id="S5zX3HuSBleYr7RCD1JO-2" value="&lt;u&gt;ID nhân viên&lt;/u&gt;" style="ellipse;whiteSpace=wrap;html=1;fillColor=#d5e8d4;strokeColor=#82b366;" vertex="1" parent="1">
          <mxGeometry x="414" y="75" width="80" height="60" as="geometry" />
        </mxCell>
        <mxCell id="S5zX3HuSBleYr7RCD1JO-3" value="&lt;u&gt;ID tài khoản&lt;/u&gt;" style="ellipse;whiteSpace=wrap;html=1;fillColor=#d5e8d4;strokeColor=#82b366;" vertex="1" parent="1">
          <mxGeometry x="20" y="220" width="90" height="50" as="geometry" />
        </mxCell>
        <mxCell id="S5zX3HuSBleYr7RCD1JO-4" value="loại tài khoản" style="ellipse;whiteSpace=wrap;html=1;" vertex="1" parent="1">
          <mxGeometry x="290" y="110" width="80" height="50" as="geometry" />
        </mxCell>
        <mxCell id="S5zX3HuSBleYr7RCD1JO-5" value="mật khẩu&lt;span style=&quot;white-space: pre&quot;&gt;	&lt;/span&gt;" style="ellipse;whiteSpace=wrap;html=1;" vertex="1" parent="1">
          <mxGeometry x="170" y="80" width="80" height="50" as="geometry" />
        </mxCell>
        <mxCell id="S5zX3HuSBleYr7RCD1JO-6" value="tên tài khoản" style="ellipse;whiteSpace=wrap;html=1;" vertex="1" parent="1">
          <mxGeometry x="20" y="100" width="95" height="50" as="geometry" />
        </mxCell>
        <mxCell id="S5zX3HuSBleYr7RCD1JO-7" value="nhân viên" style="rounded=0;whiteSpace=wrap;html=1;" vertex="1" parent="1">
          <mxGeometry x="550" y="130" width="90" height="50" as="geometry" />
        </mxCell>
        <mxCell id="S5zX3HuSBleYr7RCD1JO-8" value="Số điện thoại" style="ellipse;whiteSpace=wrap;html=1;" vertex="1" parent="1">
          <mxGeometry x="680" y="140" width="90" height="50" as="geometry" />
        </mxCell>
        <mxCell id="S5zX3HuSBleYr7RCD1JO-9" value="Địa chỉ" style="ellipse;whiteSpace=wrap;html=1;" vertex="1" parent="1">
          <mxGeometry x="650" y="70" width="90" height="55" as="geometry" />
        </mxCell>
        <mxCell id="S5zX3HuSBleYr7RCD1JO-10" value="tên nhân viên" style="ellipse;whiteSpace=wrap;html=1;" vertex="1" parent="1">
          <mxGeometry x="530" y="52.5" width="90" height="47.5" as="geometry" />
        </mxCell>
        <mxCell id="S5zX3HuSBleYr7RCD1JO-11" value="Email" style="ellipse;whiteSpace=wrap;html=1;" vertex="1" parent="1">
          <mxGeometry x="650" y="220" width="90" height="50" as="geometry" />
        </mxCell>
        <mxCell id="S5zX3HuSBleYr7RCD1JO-12" value="Danh mục" style="rounded=0;whiteSpace=wrap;html=1;" vertex="1" parent="1">
          <mxGeometry x="810" y="270" width="90" height="50" as="geometry" />
        </mxCell>
        <mxCell id="S5zX3HuSBleYr7RCD1JO-13" value="Chi tiết" style="ellipse;whiteSpace=wrap;html=1;" vertex="1" parent="1">
          <mxGeometry x="1000" y="360" width="90" height="50" as="geometry" />
        </mxCell>
        <mxCell id="S5zX3HuSBleYr7RCD1JO-14" value="&lt;u&gt;ID Danh mục&lt;/u&gt;" style="ellipse;whiteSpace=wrap;html=1;fillColor=#d5e8d4;strokeColor=#82b366;" vertex="1" parent="1">
          <mxGeometry x="820" y="170" width="110" height="50" as="geometry" />
        </mxCell>
        <mxCell id="S5zX3HuSBleYr7RCD1JO-15" value="Tên danh mục" style="ellipse;whiteSpace=wrap;html=1;" vertex="1" parent="1">
          <mxGeometry x="980" y="230" width="100" height="50" as="geometry" />
        </mxCell>
        <mxCell id="S5zX3HuSBleYr7RCD1JO-16" value="Sản phẩm" style="rounded=0;whiteSpace=wrap;html=1;" vertex="1" parent="1">
          <mxGeometry x="160" y="370" width="90" height="60" as="geometry" />
        </mxCell>
        <mxCell id="S5zX3HuSBleYr7RCD1JO-17" value="hình ảnh" style="ellipse;whiteSpace=wrap;html=1;" vertex="1" parent="1">
          <mxGeometry x="340" y="445" width="90" height="60" as="geometry" />
        </mxCell>
        <mxCell id="S5zX3HuSBleYr7RCD1JO-18" value="số lượng" style="ellipse;whiteSpace=wrap;html=1;" vertex="1" parent="1">
          <mxGeometry x="310" y="310" width="90" height="60" as="geometry" />
        </mxCell>
        <mxCell id="S5zX3HuSBleYr7RCD1JO-19" value="giá" style="ellipse;whiteSpace=wrap;html=1;" vertex="1" parent="1">
          <mxGeometry x="170" y="480" width="90" height="60" as="geometry" />
        </mxCell>
        <mxCell id="S5zX3HuSBleYr7RCD1JO-20" value="tên sản phẩm" style="ellipse;whiteSpace=wrap;html=1;" vertex="1" parent="1">
          <mxGeometry x="22.5" y="440" width="90" height="60" as="geometry" />
        </mxCell>
        <mxCell id="S5zX3HuSBleYr7RCD1JO-21" value="&lt;u&gt;ID sản phẩm&lt;/u&gt;" style="ellipse;whiteSpace=wrap;html=1;fillColor=#d5e8d4;strokeColor=#82b366;" vertex="1" parent="1">
          <mxGeometry x="20" y="340" width="100" height="60" as="geometry" />
        </mxCell>
        <mxCell id="S5zX3HuSBleYr7RCD1JO-23" value="Khách hàng" style="rounded=0;whiteSpace=wrap;html=1;" vertex="1" parent="1">
          <mxGeometry x="240" y="590" width="100" height="50" as="geometry" />
        </mxCell>
        <mxCell id="S5zX3HuSBleYr7RCD1JO-24" value="Số điện thoại" style="ellipse;whiteSpace=wrap;html=1;" vertex="1" parent="1">
          <mxGeometry x="420" y="615" width="90" height="60" as="geometry" />
        </mxCell>
        <mxCell id="S5zX3HuSBleYr7RCD1JO-25" value="Địa chỉ" style="ellipse;whiteSpace=wrap;html=1;" vertex="1" parent="1">
          <mxGeometry x="300" y="705" width="90" height="60" as="geometry" />
        </mxCell>
        <mxCell id="S5zX3HuSBleYr7RCD1JO-26" value="Tên khách hàng" style="ellipse;whiteSpace=wrap;html=1;" vertex="1" parent="1">
          <mxGeometry x="90" y="700" width="100" height="70" as="geometry" />
        </mxCell>
        <mxCell id="S5zX3HuSBleYr7RCD1JO-27" value="&lt;u&gt;ID khách&amp;nbsp; hàng&lt;/u&gt;" style="ellipse;whiteSpace=wrap;html=1;fillColor=#d5e8d4;strokeColor=#82b366;" vertex="1" parent="1">
          <mxGeometry x="60" y="580" width="90" height="70" as="geometry" />
        </mxCell>
        <mxCell id="S5zX3HuSBleYr7RCD1JO-28" value="Đơn hàng" style="rounded=0;whiteSpace=wrap;html=1;" vertex="1" parent="1">
          <mxGeometry x="675" y="445" width="100" height="50" as="geometry" />
        </mxCell>
        <mxCell id="S5zX3HuSBleYr7RCD1JO-29" value="Ghi chú" style="ellipse;whiteSpace=wrap;html=1;" vertex="1" parent="1">
          <mxGeometry x="530" y="470" width="110" height="70" as="geometry" />
        </mxCell>
        <mxCell id="S5zX3HuSBleYr7RCD1JO-30" value="Trạng thái" style="ellipse;whiteSpace=wrap;html=1;" vertex="1" parent="1">
          <mxGeometry x="710" y="585" width="90" height="70" as="geometry" />
        </mxCell>
        <mxCell id="S5zX3HuSBleYr7RCD1JO-31" value="Tên khách hàng" style="ellipse;whiteSpace=wrap;html=1;" vertex="1" parent="1">
          <mxGeometry x="950" y="585" width="100" height="60" as="geometry" />
        </mxCell>
        <mxCell id="S5zX3HuSBleYr7RCD1JO-32" value="Số điện thoại" style="ellipse;whiteSpace=wrap;html=1;" vertex="1" parent="1">
          <mxGeometry x="580" y="590" width="100" height="60" as="geometry" />
        </mxCell>
        <mxCell id="S5zX3HuSBleYr7RCD1JO-33" value="Địa chỉ" style="ellipse;whiteSpace=wrap;html=1;" vertex="1" parent="1">
          <mxGeometry x="827" y="605" width="100" height="70" as="geometry" />
        </mxCell>
        <mxCell id="S5zX3HuSBleYr7RCD1JO-34" value="Mã đơn hàng" style="ellipse;whiteSpace=wrap;html=1;" vertex="1" parent="1">
          <mxGeometry x="940" y="490" width="100" height="70" as="geometry" />
        </mxCell>
        <mxCell id="S5zX3HuSBleYr7RCD1JO-35" value="&lt;u&gt;ID đơn hàng&lt;/u&gt;" style="ellipse;whiteSpace=wrap;html=1;fillColor=#d5e8d4;strokeColor=#82b366;" vertex="1" parent="1">
          <mxGeometry x="860" y="400" width="110" height="70" as="geometry" />
        </mxCell>
        <mxCell id="S5zX3HuSBleYr7RCD1JO-36" value="có" style="rhombus;whiteSpace=wrap;html=1;" vertex="1" parent="1">
          <mxGeometry x="370" y="180" width="80" height="60" as="geometry" />
        </mxCell>
        <mxCell id="S5zX3HuSBleYr7RCD1JO-37" value="" style="endArrow=none;html=1;rounded=0;entryX=0;entryY=1;entryDx=0;entryDy=0;exitX=1;exitY=0.5;exitDx=0;exitDy=0;" edge="1" parent="1" source="S5zX3HuSBleYr7RCD1JO-36" target="S5zX3HuSBleYr7RCD1JO-7">
          <mxGeometry width="50" height="50" relative="1" as="geometry">
            <mxPoint x="390" y="420" as="sourcePoint" />
            <mxPoint x="440" y="370" as="targetPoint" />
          </mxGeometry>
        </mxCell>
        <mxCell id="S5zX3HuSBleYr7RCD1JO-38" value="" style="endArrow=none;html=1;rounded=0;exitX=1;exitY=1;exitDx=0;exitDy=0;entryX=0;entryY=0.5;entryDx=0;entryDy=0;" edge="1" parent="1" source="S5zX3HuSBleYr7RCD1JO-1" target="S5zX3HuSBleYr7RCD1JO-36">
          <mxGeometry width="50" height="50" relative="1" as="geometry">
            <mxPoint x="390" y="420" as="sourcePoint" />
            <mxPoint x="440" y="370" as="targetPoint" />
          </mxGeometry>
        </mxCell>
        <mxCell id="S5zX3HuSBleYr7RCD1JO-39" value="" style="endArrow=none;html=1;rounded=0;entryX=0;entryY=0;entryDx=0;entryDy=0;exitX=0.947;exitY=0.88;exitDx=0;exitDy=0;exitPerimeter=0;" edge="1" parent="1" source="S5zX3HuSBleYr7RCD1JO-6" target="S5zX3HuSBleYr7RCD1JO-1">
          <mxGeometry width="50" height="50" relative="1" as="geometry">
            <mxPoint x="390" y="420" as="sourcePoint" />
            <mxPoint x="440" y="370" as="targetPoint" />
          </mxGeometry>
        </mxCell>
        <mxCell id="S5zX3HuSBleYr7RCD1JO-41" value="" style="endArrow=none;html=1;rounded=0;entryX=0.5;entryY=1;entryDx=0;entryDy=0;exitX=0.64;exitY=0.02;exitDx=0;exitDy=0;exitPerimeter=0;" edge="1" parent="1" source="S5zX3HuSBleYr7RCD1JO-1" target="S5zX3HuSBleYr7RCD1JO-5">
          <mxGeometry width="50" height="50" relative="1" as="geometry">
            <mxPoint x="390" y="420" as="sourcePoint" />
            <mxPoint x="440" y="370" as="targetPoint" />
          </mxGeometry>
        </mxCell>
        <mxCell id="S5zX3HuSBleYr7RCD1JO-42" value="" style="endArrow=none;html=1;rounded=0;entryX=1;entryY=0.5;entryDx=0;entryDy=0;exitX=0.5;exitY=1;exitDx=0;exitDy=0;" edge="1" parent="1" source="S5zX3HuSBleYr7RCD1JO-4" target="S5zX3HuSBleYr7RCD1JO-1">
          <mxGeometry width="50" height="50" relative="1" as="geometry">
            <mxPoint x="390" y="420" as="sourcePoint" />
            <mxPoint x="440" y="370" as="targetPoint" />
          </mxGeometry>
        </mxCell>
        <mxCell id="S5zX3HuSBleYr7RCD1JO-43" value="" style="endArrow=none;html=1;rounded=0;entryX=0;entryY=1;entryDx=0;entryDy=0;exitX=1;exitY=0.5;exitDx=0;exitDy=0;" edge="1" parent="1" source="S5zX3HuSBleYr7RCD1JO-3" target="S5zX3HuSBleYr7RCD1JO-1">
          <mxGeometry width="50" height="50" relative="1" as="geometry">
            <mxPoint x="390" y="420" as="sourcePoint" />
            <mxPoint x="440" y="370" as="targetPoint" />
          </mxGeometry>
        </mxCell>
        <mxCell id="S5zX3HuSBleYr7RCD1JO-44" value="" style="endArrow=none;html=1;rounded=0;exitX=1.011;exitY=0.25;exitDx=0;exitDy=0;exitPerimeter=0;entryX=0;entryY=1;entryDx=0;entryDy=0;" edge="1" parent="1" source="S5zX3HuSBleYr7RCD1JO-20" target="S5zX3HuSBleYr7RCD1JO-16">
          <mxGeometry width="50" height="50" relative="1" as="geometry">
            <mxPoint x="390" y="420" as="sourcePoint" />
            <mxPoint x="440" y="370" as="targetPoint" />
          </mxGeometry>
        </mxCell>
        <mxCell id="S5zX3HuSBleYr7RCD1JO-45" value="" style="endArrow=none;html=1;rounded=0;entryX=1;entryY=0.5;entryDx=0;entryDy=0;exitX=0;exitY=0;exitDx=0;exitDy=0;" edge="1" parent="1" source="S5zX3HuSBleYr7RCD1JO-16" target="S5zX3HuSBleYr7RCD1JO-21">
          <mxGeometry width="50" height="50" relative="1" as="geometry">
            <mxPoint x="390" y="420" as="sourcePoint" />
            <mxPoint x="440" y="370" as="targetPoint" />
          </mxGeometry>
        </mxCell>
        <mxCell id="S5zX3HuSBleYr7RCD1JO-46" value="" style="endArrow=none;html=1;rounded=0;entryX=0.222;entryY=0;entryDx=0;entryDy=0;entryPerimeter=0;exitX=0;exitY=1;exitDx=0;exitDy=0;" edge="1" parent="1" source="S5zX3HuSBleYr7RCD1JO-12" target="S5zX3HuSBleYr7RCD1JO-13">
          <mxGeometry width="50" height="50" relative="1" as="geometry">
            <mxPoint x="390" y="420" as="sourcePoint" />
            <mxPoint x="440" y="370" as="targetPoint" />
          </mxGeometry>
        </mxCell>
        <mxCell id="S5zX3HuSBleYr7RCD1JO-47" value="" style="endArrow=none;html=1;rounded=0;entryX=0.03;entryY=0.64;entryDx=0;entryDy=0;entryPerimeter=0;exitX=1;exitY=1;exitDx=0;exitDy=0;" edge="1" parent="1" source="S5zX3HuSBleYr7RCD1JO-12" target="S5zX3HuSBleYr7RCD1JO-15">
          <mxGeometry width="50" height="50" relative="1" as="geometry">
            <mxPoint x="390" y="420" as="sourcePoint" />
            <mxPoint x="440" y="370" as="targetPoint" />
          </mxGeometry>
        </mxCell>
        <mxCell id="S5zX3HuSBleYr7RCD1JO-48" value="" style="endArrow=none;html=1;rounded=0;entryX=1;entryY=0;entryDx=0;entryDy=0;" edge="1" parent="1" source="S5zX3HuSBleYr7RCD1JO-14" target="S5zX3HuSBleYr7RCD1JO-12">
          <mxGeometry width="50" height="50" relative="1" as="geometry">
            <mxPoint x="390" y="420" as="sourcePoint" />
            <mxPoint x="440" y="370" as="targetPoint" />
          </mxGeometry>
        </mxCell>
        <mxCell id="S5zX3HuSBleYr7RCD1JO-49" value="" style="endArrow=none;html=1;rounded=0;entryX=0;entryY=0.5;entryDx=0;entryDy=0;exitX=0.389;exitY=0.98;exitDx=0;exitDy=0;exitPerimeter=0;" edge="1" parent="1" source="S5zX3HuSBleYr7RCD1JO-7" target="S5zX3HuSBleYr7RCD1JO-11">
          <mxGeometry width="50" height="50" relative="1" as="geometry">
            <mxPoint x="390" y="420" as="sourcePoint" />
            <mxPoint x="440" y="370" as="targetPoint" />
          </mxGeometry>
        </mxCell>
        <mxCell id="S5zX3HuSBleYr7RCD1JO-50" value="" style="endArrow=none;html=1;rounded=0;entryX=0;entryY=0.5;entryDx=0;entryDy=0;" edge="1" parent="1" source="S5zX3HuSBleYr7RCD1JO-7" target="S5zX3HuSBleYr7RCD1JO-8">
          <mxGeometry width="50" height="50" relative="1" as="geometry">
            <mxPoint x="390" y="420" as="sourcePoint" />
            <mxPoint x="440" y="370" as="targetPoint" />
          </mxGeometry>
        </mxCell>
        <mxCell id="S5zX3HuSBleYr7RCD1JO-51" value="" style="endArrow=none;html=1;rounded=0;entryX=0;entryY=0.5;entryDx=0;entryDy=0;exitX=1;exitY=0;exitDx=0;exitDy=0;" edge="1" parent="1" source="S5zX3HuSBleYr7RCD1JO-7" target="S5zX3HuSBleYr7RCD1JO-9">
          <mxGeometry width="50" height="50" relative="1" as="geometry">
            <mxPoint x="390" y="420" as="sourcePoint" />
            <mxPoint x="440" y="370" as="targetPoint" />
          </mxGeometry>
        </mxCell>
        <mxCell id="S5zX3HuSBleYr7RCD1JO-52" value="" style="endArrow=none;html=1;rounded=0;entryX=0.333;entryY=1.042;entryDx=0;entryDy=0;entryPerimeter=0;exitX=0.25;exitY=0;exitDx=0;exitDy=0;" edge="1" parent="1" source="S5zX3HuSBleYr7RCD1JO-7" target="S5zX3HuSBleYr7RCD1JO-10">
          <mxGeometry width="50" height="50" relative="1" as="geometry">
            <mxPoint x="390" y="420" as="sourcePoint" />
            <mxPoint x="440" y="370" as="targetPoint" />
          </mxGeometry>
        </mxCell>
        <mxCell id="S5zX3HuSBleYr7RCD1JO-53" value="" style="endArrow=none;html=1;rounded=0;exitX=0;exitY=0.5;exitDx=0;exitDy=0;" edge="1" parent="1" source="S5zX3HuSBleYr7RCD1JO-7" target="S5zX3HuSBleYr7RCD1JO-2">
          <mxGeometry width="50" height="50" relative="1" as="geometry">
            <mxPoint x="390" y="420" as="sourcePoint" />
            <mxPoint x="440" y="370" as="targetPoint" />
          </mxGeometry>
        </mxCell>
        <mxCell id="S5zX3HuSBleYr7RCD1JO-54" value="" style="endArrow=none;html=1;rounded=0;entryX=1;entryY=1;entryDx=0;entryDy=0;exitX=0.5;exitY=0;exitDx=0;exitDy=0;" edge="1" parent="1" source="S5zX3HuSBleYr7RCD1JO-25" target="S5zX3HuSBleYr7RCD1JO-23">
          <mxGeometry width="50" height="50" relative="1" as="geometry">
            <mxPoint x="390" y="420" as="sourcePoint" />
            <mxPoint x="440" y="370" as="targetPoint" />
          </mxGeometry>
        </mxCell>
        <mxCell id="S5zX3HuSBleYr7RCD1JO-55" value="" style="endArrow=none;html=1;rounded=0;exitX=1.033;exitY=0.414;exitDx=0;exitDy=0;exitPerimeter=0;entryX=0;entryY=0;entryDx=0;entryDy=0;" edge="1" parent="1" source="S5zX3HuSBleYr7RCD1JO-27" target="S5zX3HuSBleYr7RCD1JO-23">
          <mxGeometry width="50" height="50" relative="1" as="geometry">
            <mxPoint x="390" y="420" as="sourcePoint" />
            <mxPoint x="440" y="370" as="targetPoint" />
          </mxGeometry>
        </mxCell>
        <mxCell id="S5zX3HuSBleYr7RCD1JO-56" value="" style="endArrow=none;html=1;rounded=0;entryX=1;entryY=0;entryDx=0;entryDy=0;exitX=0.222;exitY=0.083;exitDx=0;exitDy=0;exitPerimeter=0;" edge="1" parent="1" source="S5zX3HuSBleYr7RCD1JO-24" target="S5zX3HuSBleYr7RCD1JO-23">
          <mxGeometry width="50" height="50" relative="1" as="geometry">
            <mxPoint x="390" y="420" as="sourcePoint" />
            <mxPoint x="440" y="370" as="targetPoint" />
          </mxGeometry>
        </mxCell>
        <mxCell id="S5zX3HuSBleYr7RCD1JO-57" value="" style="endArrow=none;html=1;rounded=0;exitX=1;exitY=0;exitDx=0;exitDy=0;entryX=0;entryY=0.5;entryDx=0;entryDy=0;" edge="1" parent="1" source="S5zX3HuSBleYr7RCD1JO-28" target="S5zX3HuSBleYr7RCD1JO-35">
          <mxGeometry width="50" height="50" relative="1" as="geometry">
            <mxPoint x="460" y="430" as="sourcePoint" />
            <mxPoint x="440" y="370" as="targetPoint" />
          </mxGeometry>
        </mxCell>
        <mxCell id="S5zX3HuSBleYr7RCD1JO-58" value="" style="endArrow=none;html=1;rounded=0;entryX=1;entryY=0;entryDx=0;entryDy=0;exitX=0;exitY=1;exitDx=0;exitDy=0;" edge="1" parent="1" source="S5zX3HuSBleYr7RCD1JO-23" target="S5zX3HuSBleYr7RCD1JO-26">
          <mxGeometry width="50" height="50" relative="1" as="geometry">
            <mxPoint x="430" y="420" as="sourcePoint" />
            <mxPoint x="440" y="370" as="targetPoint" />
          </mxGeometry>
        </mxCell>
        <mxCell id="S5zX3HuSBleYr7RCD1JO-59" value="" style="endArrow=none;html=1;rounded=0;entryX=0.656;entryY=0.017;entryDx=0;entryDy=0;entryPerimeter=0;exitX=1;exitY=1;exitDx=0;exitDy=0;" edge="1" parent="1" source="S5zX3HuSBleYr7RCD1JO-16" target="S5zX3HuSBleYr7RCD1JO-17">
          <mxGeometry width="50" height="50" relative="1" as="geometry">
            <mxPoint x="390" y="420" as="sourcePoint" />
            <mxPoint x="440" y="370" as="targetPoint" />
          </mxGeometry>
        </mxCell>
        <mxCell id="S5zX3HuSBleYr7RCD1JO-60" value="" style="endArrow=none;html=1;rounded=0;entryX=0.5;entryY=1;entryDx=0;entryDy=0;" edge="1" parent="1" source="S5zX3HuSBleYr7RCD1JO-19" target="S5zX3HuSBleYr7RCD1JO-16">
          <mxGeometry width="50" height="50" relative="1" as="geometry">
            <mxPoint x="390" y="420" as="sourcePoint" />
            <mxPoint x="440" y="370" as="targetPoint" />
          </mxGeometry>
        </mxCell>
        <mxCell id="S5zX3HuSBleYr7RCD1JO-61" value="" style="endArrow=none;html=1;rounded=0;entryX=1;entryY=0;entryDx=0;entryDy=0;exitX=0.044;exitY=0.267;exitDx=0;exitDy=0;exitPerimeter=0;" edge="1" parent="1" source="S5zX3HuSBleYr7RCD1JO-18" target="S5zX3HuSBleYr7RCD1JO-16">
          <mxGeometry width="50" height="50" relative="1" as="geometry">
            <mxPoint x="390" y="420" as="sourcePoint" />
            <mxPoint x="440" y="370" as="targetPoint" />
          </mxGeometry>
        </mxCell>
        <mxCell id="S5zX3HuSBleYr7RCD1JO-62" value="" style="endArrow=none;html=1;rounded=0;exitX=0;exitY=0;exitDx=0;exitDy=0;" edge="1" parent="1" source="S5zX3HuSBleYr7RCD1JO-28" target="S5zX3HuSBleYr7RCD1JO-29">
          <mxGeometry width="50" height="50" relative="1" as="geometry">
            <mxPoint x="390" y="420" as="sourcePoint" />
            <mxPoint x="440" y="370" as="targetPoint" />
          </mxGeometry>
        </mxCell>
        <mxCell id="S5zX3HuSBleYr7RCD1JO-63" value="" style="endArrow=none;html=1;rounded=0;entryX=0.7;entryY=0;entryDx=0;entryDy=0;entryPerimeter=0;exitX=0;exitY=1;exitDx=0;exitDy=0;" edge="1" parent="1" source="S5zX3HuSBleYr7RCD1JO-28" target="S5zX3HuSBleYr7RCD1JO-32">
          <mxGeometry width="50" height="50" relative="1" as="geometry">
            <mxPoint x="390" y="420" as="sourcePoint" />
            <mxPoint x="440" y="370" as="targetPoint" />
          </mxGeometry>
        </mxCell>
        <mxCell id="S5zX3HuSBleYr7RCD1JO-64" value="" style="endArrow=none;html=1;rounded=0;exitX=0.25;exitY=1;exitDx=0;exitDy=0;" edge="1" parent="1" source="S5zX3HuSBleYr7RCD1JO-28" target="S5zX3HuSBleYr7RCD1JO-30">
          <mxGeometry width="50" height="50" relative="1" as="geometry">
            <mxPoint x="390" y="420" as="sourcePoint" />
            <mxPoint x="440" y="370" as="targetPoint" />
          </mxGeometry>
        </mxCell>
        <mxCell id="S5zX3HuSBleYr7RCD1JO-65" value="" style="endArrow=none;html=1;rounded=0;entryX=0.23;entryY=0.014;entryDx=0;entryDy=0;entryPerimeter=0;exitX=0.5;exitY=1;exitDx=0;exitDy=0;" edge="1" parent="1" source="S5zX3HuSBleYr7RCD1JO-28" target="S5zX3HuSBleYr7RCD1JO-33">
          <mxGeometry width="50" height="50" relative="1" as="geometry">
            <mxPoint x="390" y="420" as="sourcePoint" />
            <mxPoint x="930" y="690" as="targetPoint" />
          </mxGeometry>
        </mxCell>
        <mxCell id="S5zX3HuSBleYr7RCD1JO-66" value="" style="endArrow=none;html=1;rounded=0;entryX=0.04;entryY=0.217;entryDx=0;entryDy=0;entryPerimeter=0;exitX=1;exitY=1;exitDx=0;exitDy=0;" edge="1" parent="1" source="S5zX3HuSBleYr7RCD1JO-28" target="S5zX3HuSBleYr7RCD1JO-31">
          <mxGeometry width="50" height="50" relative="1" as="geometry">
            <mxPoint x="390" y="420" as="sourcePoint" />
            <mxPoint x="440" y="370" as="targetPoint" />
          </mxGeometry>
        </mxCell>
        <mxCell id="S5zX3HuSBleYr7RCD1JO-67" value="" style="endArrow=none;html=1;rounded=0;entryX=-0.02;entryY=0.343;entryDx=0;entryDy=0;entryPerimeter=0;exitX=1;exitY=0.5;exitDx=0;exitDy=0;" edge="1" parent="1" source="S5zX3HuSBleYr7RCD1JO-28" target="S5zX3HuSBleYr7RCD1JO-34">
          <mxGeometry width="50" height="50" relative="1" as="geometry">
            <mxPoint x="390" y="420" as="sourcePoint" />
            <mxPoint x="440" y="370" as="targetPoint" />
          </mxGeometry>
        </mxCell>
      </root>
    </mxGraphModel>
  </diagram>
</mxfile>
